<?xml version="1.0" encoding="UTF-8"?>
<svg version="1.1" xmlns="http://www.w3.org/2000/svg" width="1000" height="192">
<path d="M0 0 C6.81118008 4.82081626 12.18161929 10.57255729 14.74609375 18.64453125 C16.00116207 28.81058464 15.01502766 36.79476846 9.74609375 45.64453125 C9.153125 46.6809375 8.56015625 47.71734375 7.94921875 48.78515625 C3.39488209 56.47287654 -1.74245821 63.61977036 -7.25390625 70.64453125 C-8.45660156 72.19140625 -8.45660156 72.19140625 -9.68359375 73.76953125 C-16.25724594 82.04586713 -16.25724594 82.04586713 -20.25390625 83.64453125 C-33.87732272 69.34835348 -52.87495611 47.88140801 -54.50390625 27.51953125 C-53.82427937 16.98531456 -49.59214512 9.49498496 -41.94140625 2.39453125 C-29.71243356 -7.57887537 -13.34956739 -8.02824937 0 0 Z M-29.25390625 18.64453125 C-32.49316475 22.18747023 -32.83077619 25.77593319 -32.67578125 30.42578125 C-31.82632692 34.89328178 -28.99889696 37.32074519 -25.44140625 40.01953125 C-20.29140883 41.49095909 -16.59253154 41.35172951 -11.94140625 38.89453125 C-8.8222727 36.28316363 -6.56007116 34.34085034 -5.8203125 30.2421875 C-5.814005 26.14862171 -5.86698709 23.37193928 -7.81640625 19.70703125 C-15.15113463 13.50072262 -21.57839693 13.69048702 -29.25390625 18.64453125 Z " fill="#FE0000" transform="translate(180.25390625,83.35546875)"/>
<path d="M0 0 C3.3125 2.125 3.3125 2.125 5.3125 4.125 C5.6425 2.475 5.9725 0.825 6.3125 -0.875 C11.2625 -0.875 16.2125 -0.875 21.3125 -0.875 C21.36213634 6.22337844 21.39833149 13.32165462 21.42236328 20.42016602 C21.43238754 22.83229331 21.44601045 25.24440855 21.46337891 27.65649414 C21.48778462 31.1343077 21.49901918 34.61195983 21.5078125 38.08984375 C21.51813507 39.15895493 21.52845764 40.2280661 21.53909302 41.32957458 C21.54054819 51.15881119 20.80790807 59.28612893 13.8125 66.71875 C6.96646663 73.18444818 -1.00995271 74.67968392 -10.1875 74.5625 C-11.02120117 74.55492676 -11.85490234 74.54735352 -12.71386719 74.53955078 C-22.61143589 74.27357061 -28.62865235 70.93417779 -35.6875 64.125 C-34.78123216 62.8260161 -33.86200463 61.53606833 -32.9375 60.25 C-32.42703125 59.53070313 -31.9165625 58.81140625 -31.390625 58.0703125 C-29.61246453 56.03929435 -28.16048393 55.14644988 -25.6875 54.125 C-24.945 54.74375 -24.2025 55.3625 -23.4375 56 C-18.91668801 59.49335472 -15.48676394 60.8397903 -9.6875 61.125 C-5.55606517 60.30008789 -1.93209074 59.17512344 1.3125 56.4375 C2.7868417 53.02808482 3.00427605 49.82368745 3.3125 46.125 C1.9203125 47.3315625 1.9203125 47.3315625 0.5 48.5625 C-4.32911189 52.74773031 -9.22331718 52.46696314 -15.390625 52.3984375 C-21.70108363 51.87505823 -25.71802207 49.43896184 -30 44.875 C-36.00095226 37.0753972 -36.7915761 28.66594675 -35.98046875 19.10839844 C-35.04482875 12.77411561 -32.16422172 7.31951024 -27.390625 3.08984375 C-19.37833682 -2.44806132 -9.08401198 -4.49191033 0 0 Z M-15.6875 16.125 C-18.60553293 20.5020494 -19.32798309 23.90963771 -18.6875 29.125 C-17.15972233 33.53554863 -15.36264415 35.70462723 -11.375 38.1875 C-6.88414201 39.32924356 -4.88208522 39.0669376 -0.6875 37.125 C2.53386859 34.38340971 3.99100473 32.8622025 4.7578125 28.71875 C4.95239551 24.4119794 4.54603617 21.61901882 2.6875 17.6875 C0.04985606 14.84162102 -2.06398546 13.48381795 -5.6875 12.125 C-10.5170217 12.125 -11.9784042 13.12615659 -15.6875 16.125 Z " fill="#51545D" transform="translate(937.6875,80.875)"/>
<path d="M0 0 C5.61 0 11.22 0 17 0 C17.01458252 1.22517334 17.02916504 2.45034668 17.04418945 3.71264648 C17.10250298 8.29203339 17.17973219 12.87094548 17.26245117 17.44995117 C17.2955458 19.42545826 17.32362504 21.40105639 17.34643555 23.37670898 C17.38026756 26.22939572 17.4325957 29.08125965 17.48828125 31.93359375 C17.49467117 32.80584091 17.5010611 33.67808807 17.50764465 34.57676697 C17.66878128 41.41644503 18.62846702 48.03558378 23 53.5 C26.96103092 56.47077319 31.2331996 56.47668004 36 56 C39.03206439 54.96634169 40.43070984 53.95520802 42.07330322 51.19911194 C44.92228309 45.1882172 45.60051605 40.1007711 45.609375 33.49609375 C45.62591125 32.5322023 45.64244751 31.56831085 45.65948486 30.57521057 C45.70764983 27.5292402 45.72926561 24.48376789 45.75 21.4375 C45.77818603 19.35869932 45.8081171 17.27992153 45.83984375 15.20117188 C45.91340025 10.13415565 45.96316689 5.06741083 46 0 C51.94 0 57.88 0 64 0 C64.04614225 5.79854325 64.08589824 11.59643835 64.10986328 17.39501953 C64.1198636 19.3637916 64.13346823 21.33254905 64.15087891 23.30126953 C64.1753917 26.14619581 64.18654306 28.99092415 64.1953125 31.8359375 C64.20563507 32.70302338 64.21595764 33.57010925 64.22659302 34.46347046 C64.22855618 45.38140596 62.25825547 55.76838536 55.05859375 64.30078125 C48.34887282 70.86646524 41.13871309 73.03961543 31.875 73.3125 C22.91497194 72.95862843 15.85529013 71.04195062 9 65 C1.5072792 56.31562643 -0.4698029 47.05043847 -0.29296875 35.83984375 C-0.28872391 34.80936417 -0.28447906 33.77888458 -0.28010559 32.71717834 C-0.26344216 29.45700885 -0.22581301 26.19747961 -0.1875 22.9375 C-0.17243722 20.7142017 -0.15875162 18.49089361 -0.14648438 16.26757812 C-0.11357907 10.84480902 -0.06188272 5.4225127 0 0 Z " fill="#51545D" transform="translate(227,61)"/>
<path d="M0 0 C5.61 0 11.22 0 17 0 C17.33 8.58 17.66 17.16 18 26 C19.65 24.68 21.3 23.36 23 22 C28.95347103 19.0185169 35.96347761 18.87837065 42.34765625 20.65234375 C48.78625562 23.54289029 52.51396322 28.3251338 55.875 34.375 C58.53101082 42.56703336 58.58723696 53.72338345 55 61.625 C51.25946237 67.85214503 45.98425579 72.79227365 39 75 C30.96982683 75.88424442 24.82997707 75.38149472 18 71 C17.34 70.34 16.68 69.68 16 69 C15.67 70.65 15.34 72.3 15 74 C10.05 74 5.1 74 0 74 C0 49.58 0 25.16 0 0 Z M20 38 C16.40590232 41.82597495 16.31975098 46.2827883 16.44921875 51.33203125 C17.24557258 55.18954662 18.96336143 56.77865169 22.13671875 58.97265625 C26.2076675 61.21722548 28.03901865 61.26974915 32.5625 60 C36.69915376 57.59321963 38.44693001 55.48356516 40 51 C40.64048309 45.78463771 39.91803293 42.3770494 37 38 C30.68118328 32.89116946 26.43196766 33.30808157 20 38 Z " fill="#51545D" transform="translate(340,59)"/>
<path d="M0 0 C-1 3 -1 3 -4.38671875 4.8671875 C-5.81564746 5.54636144 -7.24950869 6.21523074 -8.6875 6.875 C-14.13568615 9.38344604 -18.53494314 11.96386987 -23 16 C-22.99909396 17.93407433 -22.99909396 17.93407433 -22 20 C-19.8080673 21.19693677 -17.88533812 22.02639769 -15.546875 22.8359375 C-14.49847443 23.21291275 -14.49847443 23.21291275 -13.42889404 23.59750366 C-2.59211206 27.34574274 8.62556067 29.89363101 19.75 32.625 C23.15777456 33.46713169 26.56478409 34.31210502 29.97052002 35.16244507 C32.07076741 35.68631884 34.17220798 36.2054439 36.27508545 36.71865845 C58.58780351 42.26168795 58.58780351 42.26168795 65.625 53.4375 C69.22470932 58.98132714 73.15456536 64.14798661 77.31884766 69.27905273 C79.58031725 72.08702386 81.46284715 74.74485278 83 78 C77.69693248 78.37059469 72.40247214 78.58274062 67.0859375 78.5 C66.20728027 78.4896875 65.32862305 78.479375 64.42333984 78.46875 C61.38693031 77.88141308 60.15250858 76.73484611 58.0625 74.5 C57.381875 73.40365234 57.381875 73.40365234 56.6875 72.28515625 C47.88336576 60.36289113 25.3868891 55.08957247 12.11120605 50.28207397 C-28.76303957 35.47392085 -28.76303957 35.47392085 -34 25 C-35.07855725 14.56881055 -35.07855725 14.56881055 -31.9375 10 C-22.17053051 3.35014843 -11.9511445 0 0 0 Z " fill="#FFFF00" transform="translate(70,90)"/>
<path d="M0 0 C5.61 0 11.22 0 17 0 C17.495 19.8 17.495 19.8 18 40 C22.51849928 34.4963173 22.51849928 34.4963173 27.03466797 28.99072266 C27.59814941 28.3054248 28.16163086 27.62012695 28.7421875 26.9140625 C29.3182373 26.2123291 29.89428711 25.5105957 30.48779297 24.78759766 C33.65681423 21.04146048 33.65681423 21.04146048 35.87939453 20.77294922 C36.62302246 20.78342285 37.36665039 20.79389648 38.1328125 20.8046875 C38.93847656 20.81113281 39.74414062 20.81757812 40.57421875 20.82421875 C41.83685547 20.84935547 41.83685547 20.84935547 43.125 20.875 C44.39923828 20.88853516 44.39923828 20.88853516 45.69921875 20.90234375 C47.79959884 20.92594353 49.89983444 20.96181517 52 21 C49.14798495 26.2469127 45.260363 30.41474463 41.29492188 34.828125 C40.77349609 35.42109375 40.25207031 36.0140625 39.71484375 36.625 C39.24167725 37.15351562 38.76851074 37.68203125 38.28100586 38.2265625 C36.64817271 40.48707327 35.67513432 42.27854811 35 45 C36.03576211 47.59565742 36.03576211 47.59565742 37.9453125 50.0546875 C38.61046875 50.99957031 39.275625 51.94445312 39.9609375 52.91796875 C40.67507813 53.89378906 41.38921875 54.86960938 42.125 55.875 C43.50483122 57.80830829 44.88248953 59.74316953 46.2578125 61.6796875 C46.90911133 62.59073242 47.56041016 63.50177734 48.23144531 64.44042969 C50.36973167 67.53510033 52.21990502 70.68883888 54 74 C47.69734228 75.12735823 41.15004235 76.27463939 35 74 C29.39649785 68.97067574 26.09887225 61.75567389 23 55 C20.39002608 56.49297337 20.39002608 56.49297337 18 59 C17.45792283 61.81520738 17.21261906 63.945139 17.1875 66.75 C17.125625 69.1425 17.06375 71.535 17 74 C11.39 74 5.78 74 0 74 C0 49.58 0 25.16 0 0 Z " fill="#51545D" transform="translate(759,59)"/>
<path d="M0 0 C5.97290542 4.48961184 8.49549667 8.92554003 9.76171875 16.32421875 C10.10691633 19.82158854 10.26422521 23.31273725 10.38671875 26.82421875 C10.44472656 28.2009375 10.44472656 28.2009375 10.50390625 29.60546875 C10.59721439 31.84486403 10.6830006 34.08427129 10.76171875 36.32421875 C11.75171875 36.81921875 11.75171875 36.81921875 12.76171875 37.32421875 C12.76171875 41.94421875 12.76171875 46.56421875 12.76171875 51.32421875 C9.0648224 53.17266693 4.79675948 52.80079836 0.76171875 52.32421875 C-2.23828125 50.44921875 -2.23828125 50.44921875 -4.23828125 48.32421875 C-4.89828125 47.66421875 -5.55828125 47.00421875 -6.23828125 46.32421875 C-6.78097656 46.67355469 -7.32367187 47.02289063 -7.8828125 47.3828125 C-8.59824219 47.83785156 -9.31367187 48.29289062 -10.05078125 48.76171875 C-11.11232422 49.44041016 -11.11232422 49.44041016 -12.1953125 50.1328125 C-17.50041828 53.22661224 -23.28545508 52.74320917 -29.23828125 52.32421875 C-34.5963868 50.63740774 -38.44652779 47.17353077 -41.23828125 42.32421875 C-42.64970884 37.43911103 -42.54389539 33.47027176 -41.23828125 28.57421875 C-38.10831504 23.48802366 -34.58366293 20.35618669 -29.11328125 17.94921875 C-22.36267099 16.86041064 -14.86247506 16.30956126 -8.23828125 18.32421875 C-9.50774639 13.49979691 -9.50774639 13.49979691 -13.23828125 10.32421875 C-21.17297015 8.91788396 -27.33627148 11.65014511 -34.23828125 15.32421875 C-35.10745012 13.91670654 -35.95813274 12.49776665 -36.80078125 11.07421875 C-37.51427734 9.89085938 -37.51427734 9.89085938 -38.2421875 8.68359375 C-39.23828125 6.32421875 -39.23828125 6.32421875 -39.16015625 4.1640625 C-37.88533586 1.6198235 -36.53844927 1.18435159 -33.92578125 0.13671875 C-33.14589844 -0.18683594 -32.36601563 -0.51039062 -31.5625 -0.84375 C-22.36861521 -4.13500624 -8.682801 -4.86168622 0 0 Z M-25.23828125 31.32421875 C-26.54641406 34.19164472 -26.54641406 34.19164472 -25.42578125 36.44921875 C-24.36972924 38.47363917 -24.36972924 38.47363917 -22.23828125 39.32421875 C-17.7354944 39.86384547 -14.27100135 39.88360881 -10.23828125 37.69921875 C-7.86354918 34.87922442 -7.48617407 32.95998004 -7.23828125 29.32421875 C-13.50824162 25.76981945 -20.2035397 25.81747018 -25.23828125 31.32421875 Z " fill="#51545D" transform="translate(682.23828125,81.67578125)"/>
<path d="M0 0 C4.06613249 3.09457871 7.14288274 6.47552322 8.765625 11.34375 C8.90192699 13.00747732 8.98988995 14.67542163 9.046875 16.34375 C9.10294922 17.7978125 9.10294922 17.7978125 9.16015625 19.28125 C9.23046875 21.32291667 9.30078125 23.36458333 9.37109375 25.40625 C9.42716797 26.8603125 9.42716797 26.8603125 9.484375 28.34375 C9.51466797 29.230625 9.54496094 30.1175 9.57617188 31.03125 C9.68637166 33.50217306 9.68637166 33.50217306 10.765625 36.34375 C11.755625 36.83875 11.755625 36.83875 12.765625 37.34375 C12.765625 41.96375 12.765625 46.58375 12.765625 51.34375 C9.06872865 53.19219818 4.80066573 52.82032961 0.765625 52.34375 C-2.234375 50.46875 -2.234375 50.46875 -4.234375 48.34375 C-4.894375 47.68375 -5.554375 47.02375 -6.234375 46.34375 C-6.77707031 46.69308594 -7.31976563 47.04242188 -7.87890625 47.40234375 C-8.59433594 47.85738281 -9.30976563 48.31242187 -10.046875 48.78125 C-11.10841797 49.45994141 -11.10841797 49.45994141 -12.19140625 50.15234375 C-17.4887526 53.24161839 -23.28865201 52.77745658 -29.234375 52.34375 C-34.70776104 50.45294391 -38.67358234 47.09371802 -41.546875 42.03125 C-42.81427155 37.07688168 -42.79810422 33.00177712 -41.171875 28.21875 C-37.30891502 22.48661583 -32.96196157 19.10126047 -26.234375 17.34375 C-22.7265625 17.11328125 -22.7265625 17.11328125 -19.109375 17.15625 C-17.31113281 17.16591797 -17.31113281 17.16591797 -15.4765625 17.17578125 C-12.86384222 17.31113905 -10.71483382 17.57246305 -8.234375 18.34375 C-9.50384014 13.51932816 -9.50384014 13.51932816 -13.234375 10.34375 C-21.1690639 8.93741521 -27.33236523 11.66967636 -34.234375 15.34375 C-35.10354387 13.93623779 -35.95422649 12.5172979 -36.796875 11.09375 C-37.51037109 9.91039063 -37.51037109 9.91039063 -38.23828125 8.703125 C-39.234375 6.34375 -39.234375 6.34375 -39.15625 4.18359375 C-37.88142961 1.63935475 -36.53454302 1.20388284 -33.921875 0.15625 C-33.14199219 -0.16730469 -32.36210937 -0.49085937 -31.55859375 -0.82421875 C-22.34015521 -4.12426482 -8.72740592 -4.81038122 0 0 Z M-25.234375 30.34375 C-26.47838778 32.72983611 -26.47838778 32.72983611 -26.234375 35.34375 C-23.92172755 38.42727993 -22.0221913 39.7906308 -18.234375 40.34375 C-16.13397537 39.90275913 -16.13397537 39.90275913 -14.109375 39.03125 C-13.42617188 38.76699219 -12.74296875 38.50273438 -12.0390625 38.23046875 C-10.04825358 37.37283776 -10.04825358 37.37283776 -8.234375 35.34375 C-8.06760218 31.76031024 -8.06760218 31.76031024 -8.234375 28.34375 C-13.98017214 26.42848429 -20.52269938 26.07379397 -25.234375 30.34375 Z " fill="#51545D" transform="translate(443.234375,81.65625)"/>
<path d="M0 0 C3.83689995 2.38718964 6.15044323 5.89841682 7.43040466 10.16998291 C7.87654796 12.34192971 7.98364422 14.27974241 7.97680664 16.49511719 C7.97673111 17.31566589 7.97665558 18.1362146 7.97657776 18.98162842 C7.97141647 19.85780823 7.96625519 20.73398804 7.9609375 21.63671875 C7.95952255 22.5410968 7.9581076 23.44547485 7.95664978 24.3772583 C7.95106036 27.26065402 7.93850978 30.14397157 7.92578125 33.02734375 C7.92076488 34.98437388 7.91620221 36.94140522 7.91210938 38.8984375 C7.90109438 43.69143628 7.88383699 48.48437677 7.86328125 53.27734375 C2.25328125 53.27734375 -3.35671875 53.27734375 -9.13671875 53.27734375 C-9.19279297 49.66539062 -9.19279297 49.66539062 -9.25 45.98046875 C-9.29623515 43.64378874 -9.34746139 41.30726766 -9.39916992 38.97070312 C-9.4323871 37.34905689 -9.4604291 35.72729594 -9.4831543 34.10546875 C-9.5167603 31.77163898 -9.56907635 29.4388574 -9.625 27.10546875 C-9.63138992 26.3824054 -9.63777985 25.65934204 -9.6443634 24.91436768 C-9.73506573 21.7965705 -9.9721729 19.57509621 -11.49291992 16.82324219 C-13.11616685 15.02360891 -13.11616685 15.02360891 -15.94921875 14.71484375 C-20.33542471 15.4888801 -21.96532835 17.17970661 -25.13671875 20.27734375 C-26.61314235 23.23019095 -26.35944814 25.96183358 -26.453125 29.25390625 C-26.4739061 29.93915375 -26.49468719 30.62440125 -26.51609802 31.33041382 C-26.5815206 33.52095444 -26.64044429 35.71161564 -26.69921875 37.90234375 C-26.74241093 39.38673125 -26.78602545 40.87110653 -26.83007812 42.35546875 C-26.93799013 45.99597193 -27.03711656 49.6365657 -27.13671875 53.27734375 C-32.74671875 53.27734375 -38.35671875 53.27734375 -44.13671875 53.27734375 C-44.13671875 35.78734375 -44.13671875 18.29734375 -44.13671875 0.27734375 C-38.85671875 0.27734375 -33.57671875 0.27734375 -28.13671875 0.27734375 C-27.80671875 1.92734375 -27.47671875 3.57734375 -27.13671875 5.27734375 C-26.43546875 4.65859375 -25.73421875 4.03984375 -25.01171875 3.40234375 C-18.22764308 -1.61197305 -8.0115528 -2.70957453 0 0 Z " fill="#51545D" transform="translate(887.13671875,79.72265625)"/>
<path d="M0 0 C4.30533735 2.60272283 6.17622931 6.7393768 7.43139648 11.44018555 C8.02915145 15.41564466 7.98598162 19.31786216 7.9609375 23.33203125 C7.95952255 24.19060226 7.9581076 25.04917328 7.95664978 25.9337616 C7.95107182 28.66421049 7.93852339 31.39457607 7.92578125 34.125 C7.9207634 35.9811186 7.91620099 37.8372385 7.91210938 39.69335938 C7.90196237 44.2331305 7.8823827 48.77272246 7.86328125 53.3125 C2.25328125 53.3125 -3.35671875 53.3125 -9.13671875 53.3125 C-9.19279297 49.82623047 -9.19279297 49.82623047 -9.25 46.26953125 C-9.29626295 44.00893959 -9.34747903 41.7485104 -9.39916992 39.48803711 C-9.43234407 37.92173199 -9.46039933 36.35530949 -9.4831543 34.78881836 C-9.51683991 32.53188237 -9.56915924 30.27601474 -9.625 28.01953125 C-9.63138992 27.32350296 -9.63777985 26.62747467 -9.6443634 25.91035461 C-9.77385309 21.59074858 -10.41770427 18.71560932 -13.13671875 15.3125 C-16.23863123 14.62318612 -18.09478737 14.65646913 -20.82421875 16.375 C-23.03016907 18.1567291 -24.85776633 19.75459515 -26.13671875 22.3125 C-26.29192432 24.63523159 -26.38691042 26.96209313 -26.453125 29.2890625 C-26.4739061 29.97431 -26.49468719 30.6595575 -26.51609802 31.36557007 C-26.5815206 33.55611069 -26.64044429 35.74677189 -26.69921875 37.9375 C-26.74241093 39.4218875 -26.78602545 40.90626278 -26.83007812 42.390625 C-26.93799013 46.03112818 -27.03711656 49.67172195 -27.13671875 53.3125 C-32.74671875 53.3125 -38.35671875 53.3125 -44.13671875 53.3125 C-44.13671875 35.8225 -44.13671875 18.3325 -44.13671875 0.3125 C-38.85671875 0.3125 -33.57671875 0.3125 -28.13671875 0.3125 C-27.80671875 1.9625 -27.47671875 3.6125 -27.13671875 5.3125 C-26.43546875 4.69375 -25.73421875 4.075 -25.01171875 3.4375 C-18.18605959 -1.60755242 -8.07457165 -2.59803402 0 0 Z " fill="#51545D" transform="translate(507.13671875,79.6875)"/>
<path d="M0 0 C19.8 0 39.6 0 60 0 C60 5.28 60 10.56 60 16 C53.07 16 46.14 16 39 16 C39 34.48 39 52.96 39 72 C33.06 72 27.12 72 21 72 C21 53.52 21 35.04 21 16 C14.07 16 7.14 16 0 16 C0 10.72 0 5.44 0 0 Z " fill="#51545D" transform="translate(541,61)"/>
<path d="M0 0 C5.69880407 3.58534031 9.92495785 8.8603212 11.95703125 15.2890625 C13.81239229 24.82596502 9.5056597 32.63844917 4.375 40.4375 C-0.51782986 47.44161945 -5.97032615 54.03879012 -11.625 60.4375 C-16.92963394 56.20175976 -20.85549651 51.89842082 -24.6875 46.3125 C-25.2040918 45.56476318 -25.72068359 44.81702637 -26.25292969 44.04663086 C-37.73127729 27.16042453 -37.73127729 27.16042453 -37.08203125 17.75390625 C-35.51813752 9.82750468 -30.90191739 5.1318543 -24.8125 0.125 C-18.21901012 -3.43316084 -6.72602791 -3.00524651 0 0 Z M-20.625 16.4375 C-21.87338381 19.84278996 -21.87338381 19.84278996 -21.625 23.4375 C-19.85858828 26.23939446 -18.59450178 27.95274911 -15.625 29.4375 C-10.9771462 29.85064256 -8.38059848 29.22737316 -4.625 26.4375 C-3.05564406 23.29878812 -3.27298897 20.89894178 -3.625 17.4375 C-5.54166667 14.35416667 -5.54166667 14.35416667 -8.625 12.4375 C-13.98181029 11.57658406 -17.02855554 12.31216665 -20.625 16.4375 Z " fill="#006600" transform="translate(81.625,26.5625)"/>
<path d="M0 0 C2.26262116 2.19607348 3.71707459 4.24664919 5.125 7.0625 C5.125 7.7225 5.125 8.3825 5.125 9.0625 C3.06737091 9.76444375 1.00363969 10.44851697 -1.0625 11.125 C-2.21105469 11.50785156 -3.35960937 11.89070313 -4.54296875 12.28515625 C-7.89212373 13.06649487 -9.64445999 13.11285132 -12.875 12.0625 C-13.65875 11.52625 -14.4425 10.99 -15.25 10.4375 C-18.88912126 8.53129362 -20.96494581 8.99612159 -24.875 10.0625 C-27.93274024 12.5569723 -29.69388212 14.47901221 -30.1484375 18.453125 C-30.46679349 24.97025995 -30.46679349 24.97025995 -27.75 30.6875 C-24.52035849 33.35546473 -23.04689183 34.14764065 -18.875 34.0625 C-15.08059652 32.53166633 -15.08059652 32.53166633 -11.875 30.0625 C-5.8236838 30.49473687 -0.55290538 31.97271538 5.125 34.0625 C3.62757505 40.23937792 -1.49122058 43.984101 -6.6875 47.17578125 C-13.96875731 50.48687024 -23.89518828 50.4304341 -31.375 47.8125 C-39.97856964 43.51071518 -44.66702876 38.58242809 -48.25 29.625 C-49.79247266 20.83290585 -49.55777107 12.42012303 -44.36328125 4.86328125 C-33.0064067 -8.94361567 -14.27307406 -9.61881078 0 0 Z " fill="#51545D" transform="translate(747.875,84.9375)"/>
<path d="M0 0 C1.8871875 0.0309375 1.8871875 0.0309375 3.8125 0.0625 C3.8125 5.0125 3.8125 9.9625 3.8125 15.0625 C0.85026042 15.71354167 -2.11197917 16.36458333 -5.07421875 17.015625 C-8.65998295 18.22137758 -10.53540672 19.35749713 -13.1875 22.0625 C-13.96728323 25.53258913 -13.96728323 25.53258913 -13.89453125 29.453125 C-13.90965256 30.15773865 -13.92477386 30.86235229 -13.94035339 31.58831787 C-13.98320515 33.83003805 -13.99206468 36.07041122 -14 38.3125 C-14.02314669 39.83597325 -14.04851241 41.3594145 -14.07617188 42.8828125 C-14.14316572 46.61010648 -14.16414165 50.33365807 -14.1875 54.0625 C-19.7975 54.0625 -25.4075 54.0625 -31.1875 54.0625 C-31.1875 36.5725 -31.1875 19.0825 -31.1875 1.0625 C-25.9075 1.0625 -20.6275 1.0625 -15.1875 1.0625 C-14.8575 3.0425 -14.5275 5.0225 -14.1875 7.0625 C-13.71699219 6.64097656 -13.24648438 6.21945313 -12.76171875 5.78515625 C-12.13910156 5.23730469 -11.51648438 4.68945312 -10.875 4.125 C-10.26011719 3.57972656 -9.64523437 3.03445312 -9.01171875 2.47265625 C-6.08918222 0.21347919 -3.56714476 -0.05847778 0 0 Z " fill="#51545D" transform="translate(331.1875,78.9375)"/>
<path d="M0 0 C0 4.95 0 9.9 0 15 C-4.93164062 16.51367188 -4.93164062 16.51367188 -9.86328125 18.02734375 C-11.91553977 18.66372279 -13.96160137 19.32053379 -16 20 C-16.33 31.22 -16.66 42.44 -17 54 C-22.61 54 -28.22 54 -34 54 C-34 36.51 -34 19.02 -34 1 C-29.05 1 -24.1 1 -19 1 C-18.67 3.31 -18.34 5.62 -18 8 C-17.44570313 7.50628906 -16.89140625 7.01257813 -16.3203125 6.50390625 C-15.59585938 5.86324219 -14.87140625 5.22257812 -14.125 4.5625 C-13.40570312 3.92441406 -12.68640625 3.28632812 -11.9453125 2.62890625 C-8.01150882 -0.66506189 -4.97797495 -0.08028992 0 0 Z " fill="#51545D" transform="translate(638,79)"/>
<path d="M0 0 C5.61 0 11.22 0 17 0 C17 17.49 17 34.98 17 53 C11.39 53 5.78 53 0 53 C0 35.51 0 18.02 0 0 Z " fill="#51545D" transform="translate(816,80)"/>
<path d="M0 0 C5.61 0 11.22 0 17 0 C17 5.28 17 10.56 17 16 C11.39 16 5.78 16 0 16 C0 10.72 0 5.44 0 0 Z " fill="#51545D" transform="translate(816,59)"/>
</svg>