<?xml version="1.0" encoding="UTF-8"?>
<svg version="1.1" xmlns="http://www.w3.org/2000/svg" width="242" height="192">
<path d="M0 0 C4.50120272 3.60485932 7.10878713 8.08816812 9.70703125 13.16796875 C10.279375 14.05548828 10.279375 14.05548828 10.86328125 14.9609375 C13.56426384 22.02600771 12.82062814 33.51390739 10.14453125 40.54296875 C9.37812104 42.10805908 8.56211235 43.64950615 7.70703125 45.16796875 C7.19785156 46.12960938 6.68867188 47.09125 6.1640625 48.08203125 C2.81189425 54.14201505 -0.9791803 59.55551803 -5.3984375 64.87890625 C-7.06363446 66.89087619 -8.62810407 68.93487231 -10.16796875 71.04296875 C-14.29533836 76.61491772 -18.82445316 81.86933366 -23.29296875 87.16796875 C-26.56906039 86.870662 -28.006097 86.44685706 -30.3984375 84.12109375 C-31.08550781 83.2290625 -31.77257812 82.33703125 -32.48046875 81.41796875 C-33.24875 80.43054688 -34.01703125 79.443125 -34.80859375 78.42578125 C-35.21013672 77.89758789 -35.61167969 77.36939453 -36.02539062 76.82519531 C-37.33917502 75.10755886 -38.67995955 73.41403316 -40.02734375 71.72265625 C-40.92912121 70.58000738 -41.83017841 69.43678968 -42.73046875 68.29296875 C-43.36795044 67.49101074 -43.36795044 67.49101074 -44.01831055 66.67285156 C-46.37050942 63.63671368 -48.06306607 60.81063132 -49.29296875 57.16796875 C-49.95296875 57.16796875 -50.61296875 57.16796875 -51.29296875 57.16796875 C-60.1084585 42.75566807 -60.1084585 42.75566807 -61.29296875 34.16796875 C-61.95296875 34.16796875 -62.61296875 34.16796875 -63.29296875 34.16796875 C-64.05229618 23.74830896 -63.58372964 16.88256402 -57.29296875 8.16796875 C-56.78636719 7.42804688 -56.27976563 6.688125 -55.7578125 5.92578125 C-49.90964749 -1.68976532 -40.71323168 -5.96281747 -31.359375 -7.5859375 C-20.01291218 -8.93721757 -9.69710818 -5.96060778 0 0 Z M-37.73046875 19.73046875 C-39.82289043 24.33379645 -40.23797478 28.19255238 -39.29296875 33.16796875 C-37.2674091 37.07497708 -34.33267908 39.49713268 -30.29296875 41.16796875 C-25.83279218 42.02511153 -21.91634415 42.12479266 -17.93359375 39.77734375 C-14.41574086 36.82440154 -10.96409197 33.86583131 -10.29296875 29.16796875 C-10.6013423 24.2158524 -11.59064416 21.01075826 -14.79296875 17.16796875 C-22.25436541 11.91397795 -31.65961792 13.34829223 -37.73046875 19.73046875 Z " fill="#FE0000" transform="translate(196.29296875,83.83203125)"/>
<path d="M0 0 C0.66 0.66 1.32 1.32 2 2 C0.91460937 2.53109375 -0.17078125 3.0621875 -1.2890625 3.609375 C-2.73448239 4.3226991 -4.17978889 5.03625301 -5.625 5.75 C-6.33785156 6.09804687 -7.05070312 6.44609375 -7.78515625 6.8046875 C-13.85491236 9.81172264 -19.34481621 12.98672515 -24 18 C-23.32937674 21.14362848 -23.32937674 21.14362848 -20.796875 22.2109375 C-12.85253492 25.24608281 -4.89745674 27.37290076 3.39941406 29.21240234 C7.35113449 30.09396295 11.2002569 31.01653083 15.01953125 32.3671875 C22.49421975 34.95426299 30.26141055 36.62363974 37.9375 38.5 C43.31651007 39.81777341 48.69193472 41.14728077 54.05886841 42.51348877 C55.77695239 42.94409695 57.50126828 43.34967111 59.22631836 43.75146484 C63.3427296 44.79626982 65.42440624 45.33791805 68.26171875 48.6015625 C68.73222656 49.59929687 69.20273438 50.59703125 69.6875 51.625 C72.62033226 57.33268995 75.96307214 62.0390642 80 67 C81.21036247 68.58178272 82.41870849 70.16511051 83.625 71.75 C85.60705465 74.31369597 87.60062139 76.69277998 89.9375 78.9375 C90.618125 79.618125 91.29875 80.29875 92 81 C92 81.66 92 82.32 92 83 C88.29248633 83.20427691 84.58642528 83.32794588 80.875 83.4375 C79.82828125 83.49615234 78.7815625 83.55480469 77.703125 83.61523438 C70.01577254 83.78552383 70.01577254 83.78552383 67.0925293 81.52490234 C65.56640625 79.67578125 65.56640625 79.67578125 64.2265625 77.74829102 C62.5542514 75.36464854 60.57718974 74.16833392 58.0625 72.75 C57.21042969 72.26789063 56.35835938 71.78578125 55.48046875 71.2890625 C52.37253918 69.673918 49.26124878 68.27614083 46 67 C46 66.34 46 65.68 46 65 C44.79859375 64.60554688 43.5971875 64.21109375 42.359375 63.8046875 C35.95710602 61.66976356 29.60512292 59.39566087 23.25 57.125 C22.0640625 56.70347656 20.878125 56.28195313 19.65625 55.84765625 C8.39583924 51.82783713 -2.77487962 47.59822966 -13.8125 43 C-14.59302734 42.68289062 -15.37355469 42.36578125 -16.17773438 42.0390625 C-23.54805366 38.96553486 -31.11277335 35.70096307 -35.140625 28.4453125 C-36.94484308 23.31149197 -37.04028182 18.31237247 -36 13 C-32.74129747 7.02180471 -24.92232797 5.05311088 -18.859375 3.04296875 C-12.69617683 1.37740811 -6.39927801 0.14239231 0 0 Z " fill="#FFFF00" transform="translate(71,89)"/>
<path d="M0 0 C6.10627401 4.20102185 11.18512112 9.78592984 13.51953125 16.90234375 C14.15851172 20.67303071 13.590868 24.27403642 12.875 28 C12.215 28 11.555 28 10.875 28 C10.80152344 28.83789062 10.72804687 29.67578125 10.65234375 30.5390625 C9.68980967 34.82451573 7.8498821 37.75831447 5.4375 41.375 C5.02951172 42.01566406 4.62152344 42.65632813 4.20117188 43.31640625 C3.1536459 44.91930896 2.02053748 46.46561034 0.875 48 C0.215 48 -0.445 48 -1.125 48 C-1.34929687 48.70511719 -1.57359375 49.41023438 -1.8046875 50.13671875 C-3.40187311 53.60043784 -5.65019235 56.0852508 -8.25 58.8125 C-8.71792969 59.31458984 -9.18585938 59.81667969 -9.66796875 60.33398438 C-10.81401825 61.56189455 -11.96865311 62.78178215 -13.125 64 C-24.96261667 59.29701911 -34.3528293 39.71275749 -40.125 29 C-41.88976649 23.70570053 -41.65031169 18.7613392 -40.0625 13.4375 C-36.41748607 6.9705398 -32.08648709 1.35315571 -24.9765625 -1.37109375 C-17.05476184 -3.11823061 -7.39818086 -3.74993703 0 0 Z M-23.125 19 C-23.95849951 22.04340127 -23.95849951 22.04340127 -23.125 25 C-21.14049712 27.85272289 -19.6661791 29.64267017 -16.1875 30.44921875 C-12.56655081 30.64809664 -10.39914253 30.13707127 -7.125 28.5 C-4.83593379 25.63866724 -4.38835629 23.63432597 -4.6484375 19.97265625 C-5.51173719 16.39916163 -7.12500994 14.99999337 -10.125 13 C-16.48829615 11.31937138 -19.76512773 13.33021555 -23.125 19 Z " fill="#006500" transform="translate(85.125,22)"/>
</svg>